<?xml version="1.0" encoding="UTF-8" standalone="no"?>
<!DOCTYPE svg PUBLIC "-//W3C//DTD SVG 1.1//EN" "http://www.w3.org/Graphics/SVG/1.1/DTD/svg11.dtd">
<svg width="100%" height="100%" viewBox="0 0 1712 669" version="1.1" xmlns="http://www.w3.org/2000/svg" xmlns:xlink="http://www.w3.org/1999/xlink" xml:space="preserve" xmlns:serif="http://www.serif.com/" style="fill-rule:evenodd;clip-rule:evenodd;stroke-linejoin:round;stroke-miterlimit:2;">
    <g transform="matrix(1,0,0,1,-3099.887339,-550.036187)">
        <g transform="matrix(0.9969,0,0,0.47535,2958.587339,408.729315)">
            <g transform="matrix(1.003634,0,0,2.103713,-3.633557,-1133.647706)">
                <g transform="matrix(0.647858,0,0,1.474136,362.52206,-1064.299436)">
                    <path d="M-335.992,1379.417L-335.992,1305.936L-121.072,1305.936L336.235,1183.396L793.542,1305.936L1011.842,1305.936L1011.842,1380.323L784.873,1319.504L91.588,1319.504L91.588,1623.034L209.41,1623.034L209.41,1484.958L459.772,1484.958L459.772,1623.034L788.028,1623.034L788.028,1371.993L818.899,1371.993L818.899,1636.601L428.901,1636.601L428.901,1498.526L240.281,1498.526L240.281,1636.601L60.717,1636.601L60.717,1305.936L734.242,1305.936L336.235,1199.286L-112.178,1319.443L-112.178,1636.601L-143.049,1636.601L-143.049,1327.716L-335.992,1379.417ZM-305.122,1319.504L-305.122,1355.255L-171.703,1319.504L-305.122,1319.504ZM980.971,1319.504L844.174,1319.504L980.971,1356.16L980.971,1319.504Z" style="fill:rgb(27,58,45);"/>
                </g>
                <g transform="matrix(1,0,0,1,9.087566,33.483108)">
                    <g transform="matrix(4.036744,0,0,4.036744,-4171.105653,-2295.868298)">
                        <path d="M1335.75,770.516L1335.75,786.316L1330.75,786.316L1330.75,751.316L1335.75,751.316L1335.75,766.416L1353,766.416L1353,751.316L1358,751.316L1358,786.316L1353,786.316L1353,770.516L1335.75,770.516ZM1310.3,786.316L1310.3,755.416L1299.95,755.416L1299.95,751.316L1325.7,751.316L1325.7,755.416L1315.3,755.416L1315.3,786.316L1310.3,786.316ZM1365.3,786.316L1365.3,751.316L1387.4,751.316L1387.4,755.416L1370.3,755.416L1370.3,766.616L1385.9,766.616L1385.9,770.616L1370.3,770.616L1370.3,782.216L1387.4,782.216L1387.4,786.316L1365.3,786.316Z" style="fill:rgb(27,58,45);"/>
                    </g>
                    <g transform="matrix(4.036744,0,0,4.036744,-4179.986489,-2080.03936)">
                        <path d="M1313.656,772.116L1307.15,772.116L1307.15,786.316L1302.15,786.316L1302.15,751.316L1314,751.316C1316.767,751.316 1319.034,751.783 1320.8,752.716C1322.567,753.649 1323.875,754.891 1324.725,756.441C1325.575,757.991 1326,759.749 1326,761.716C1326,763.583 1325.575,765.308 1324.725,766.891C1323.875,768.474 1322.55,769.741 1320.75,770.691C1320.169,770.997 1319.537,771.254 1318.852,771.462L1326.35,786.316L1320.55,786.316L1313.656,772.116ZM1307.15,768.316L1313.65,768.316C1316.117,768.316 1317.934,767.708 1319.1,766.491C1320.267,765.274 1320.85,763.716 1320.85,761.816C1320.85,759.883 1320.284,758.349 1319.15,757.216C1318.017,756.083 1316.184,755.516 1313.65,755.516L1307.15,755.516L1307.15,768.316ZM1332.45,786.316L1332.45,751.316L1354.55,751.316L1354.55,755.416L1337.45,755.416L1337.45,766.616L1353.05,766.616L1353.05,770.616L1337.45,770.616L1337.45,782.216L1354.55,782.216L1354.55,786.316L1332.45,786.316ZM1361,786.316L1361,751.316L1382.75,751.316L1382.75,755.416L1366,755.416L1366,766.766L1380,766.766L1380,770.766L1366,770.766L1366,786.316L1361,786.316ZM1388.1,786.316L1388.1,751.316L1393.1,751.316L1393.1,786.316L1388.1,786.316ZM1400.4,786.316L1400.4,751.316L1405.4,751.316L1423.25,778.166L1423.25,751.316L1428.25,751.316L1428.25,786.316L1423.25,786.316L1405.4,759.516L1405.4,786.316L1400.4,786.316ZM1435.55,786.316L1435.55,751.316L1457.65,751.316L1457.65,755.416L1440.55,755.416L1440.55,766.616L1456.15,766.616L1456.15,770.616L1440.55,770.616L1440.55,782.216L1457.65,782.216L1457.65,786.316L1435.55,786.316ZM1464.1,786.316L1464.1,751.316L1474.85,751.316C1478.917,751.316 1482.284,752.033 1484.95,753.466C1487.617,754.899 1489.592,756.924 1490.875,759.541C1492.159,762.158 1492.8,765.266 1492.8,768.866C1492.8,772.466 1492.159,775.566 1490.875,778.166C1489.592,780.766 1487.625,782.774 1484.975,784.191C1482.325,785.608 1478.95,786.316 1474.85,786.316L1464.1,786.316ZM1469.1,782.116L1474.65,782.116C1477.884,782.116 1480.45,781.583 1482.35,780.516C1484.25,779.449 1485.609,777.924 1486.425,775.941C1487.242,773.958 1487.65,771.599 1487.65,768.866C1487.65,766.099 1487.242,763.716 1486.425,761.716C1485.609,759.716 1484.25,758.183 1482.35,757.116C1480.45,756.049 1477.884,755.516 1474.65,755.516L1469.1,755.516L1469.1,782.116Z" style="fill:rgb(27,58,45);"/>
                    </g>
                    <g transform="matrix(4.036744,0,0,4.036744,-4174.335048,-1861.788376)">
                        <path d="M1362.973,777.666L1359.9,786.316L1354.65,786.316L1367.5,751.316L1372.95,751.316L1385.8,786.316L1380.45,786.316L1377.393,777.666L1362.973,777.666ZM1375.979,773.666L1370.2,757.316L1364.393,773.666L1375.979,773.666ZM1313.6,786.916C1311.034,786.916 1308.784,786.458 1306.85,785.541C1304.917,784.624 1303.417,783.333 1302.35,781.666C1301.284,779.999 1300.75,778.049 1300.75,775.816L1306,775.816C1306.034,777.083 1306.342,778.241 1306.925,779.291C1307.509,780.341 1308.359,781.174 1309.475,781.791C1310.592,782.408 1311.967,782.716 1313.6,782.716C1315,782.716 1316.209,782.483 1317.225,782.016C1318.242,781.549 1319.017,780.908 1319.55,780.091C1320.084,779.274 1320.35,778.333 1320.35,777.266C1320.35,776.033 1320.067,775.016 1319.5,774.216C1318.934,773.416 1318.175,772.758 1317.225,772.241C1316.275,771.724 1315.175,771.266 1313.925,770.866C1312.675,770.466 1311.367,770.033 1310,769.566C1307.234,768.666 1305.175,767.499 1303.825,766.066C1302.475,764.633 1301.8,762.766 1301.8,760.466C1301.8,758.499 1302.267,756.791 1303.2,755.341C1304.134,753.891 1305.442,752.758 1307.125,751.941C1308.809,751.124 1310.8,750.716 1313.1,750.716C1315.367,750.716 1317.35,751.133 1319.05,751.966C1320.75,752.799 1322.084,753.949 1323.05,755.416C1324.017,756.883 1324.5,758.599 1324.5,760.566L1319.2,760.566C1319.2,759.666 1318.967,758.783 1318.5,757.916C1318.034,757.049 1317.334,756.341 1316.4,755.791C1315.467,755.241 1314.317,754.966 1312.95,754.966C1311.817,754.933 1310.8,755.116 1309.9,755.516C1309,755.916 1308.3,756.499 1307.8,757.266C1307.3,758.033 1307.05,758.949 1307.05,760.016C1307.05,761.083 1307.275,761.941 1307.725,762.591C1308.175,763.241 1308.834,763.799 1309.7,764.266C1310.567,764.733 1311.575,765.158 1312.725,765.541L1316.55,766.816C1318.284,767.383 1319.825,768.074 1321.175,768.891C1322.525,769.708 1323.592,770.758 1324.375,772.041C1325.159,773.324 1325.55,774.966 1325.55,776.966C1325.55,778.699 1325.1,780.316 1324.2,781.816C1323.3,783.316 1321.967,784.541 1320.2,785.491C1318.434,786.441 1316.234,786.916 1313.6,786.916ZM1331.5,786.316L1331.5,751.316L1343.45,751.316C1346.25,751.316 1348.55,751.783 1350.35,752.716C1352.15,753.649 1353.484,754.899 1354.35,756.466C1355.217,758.033 1355.65,759.816 1355.65,761.816C1355.65,763.716 1355.225,765.458 1354.375,767.041C1353.525,768.624 1352.2,769.891 1350.4,770.841C1348.6,771.791 1346.284,772.266 1343.45,772.266L1336.5,772.266L1336.5,786.316L1331.5,786.316ZM1336.5,768.116L1343.25,768.116C1345.884,768.116 1347.759,767.541 1348.875,766.391C1349.992,765.241 1350.55,763.716 1350.55,761.816C1350.55,759.783 1349.992,758.216 1348.875,757.116C1347.759,756.016 1345.884,755.466 1343.25,755.466L1336.5,755.466L1336.5,768.116ZM1404.15,786.916C1400.717,786.916 1397.759,786.158 1395.275,784.641C1392.792,783.124 1390.875,781.008 1389.525,778.291C1388.175,775.574 1387.5,772.416 1387.5,768.816C1387.5,765.249 1388.175,762.099 1389.525,759.366C1390.875,756.633 1392.792,754.508 1395.275,752.991C1397.759,751.474 1400.717,750.716 1404.15,750.716C1408.25,750.716 1411.575,751.699 1414.125,753.666C1416.675,755.633 1418.3,758.399 1419,761.966L1413.5,761.966C1413,759.899 1411.975,758.249 1410.425,757.016C1408.875,755.783 1406.784,755.166 1404.15,755.166C1401.784,755.166 1399.734,755.716 1398,756.816C1396.267,757.916 1394.934,759.483 1394,761.516C1393.067,763.549 1392.6,765.983 1392.6,768.816C1392.6,771.649 1393.067,774.091 1394,776.141C1394.934,778.191 1396.267,779.758 1398,780.841C1399.734,781.924 1401.784,782.466 1404.15,782.466C1406.784,782.466 1408.875,781.874 1410.425,780.691C1411.975,779.508 1413,777.899 1413.5,775.866L1419,775.866C1418.3,779.333 1416.675,782.041 1414.125,783.991C1411.575,785.941 1408.25,786.916 1404.15,786.916ZM1425,786.316L1425,751.316L1447.1,751.316L1447.1,755.416L1430,755.416L1430,766.616L1445.6,766.616L1445.6,770.616L1430,770.616L1430,782.216L1447.1,782.216L1447.1,786.316L1425,786.316Z" style="fill:rgb(27,58,45);"/>
                    </g>
                </g>
            </g>
        </g>
    </g>
</svg>
